<?xml version="1.0" encoding="UTF-8"?>
<svg width="300px" height="282px" viewBox="0 0 300 282" version="1.1" xmlns="http://www.w3.org/2000/svg" xmlns:xlink="http://www.w3.org/1999/xlink">
    <!-- Generator: Sketch 57.1 (83088) - https://sketch.com -->
    <title>Artboard 2</title>
    <desc>Created with Sketch.</desc>
    <defs>
        <linearGradient x1="50%" y1="100%" x2="50%" y2="0%" id="linearGradient-1">
            <stop stop-color="#FFFFFF" stop-opacity="0" offset="3%"></stop>
            <stop stop-color="#E3EFF8" offset="100%"></stop>
        </linearGradient>
    </defs>
    <g id="Marketing-Mockups" stroke="none" stroke-width="1" fill="none" fill-rule="evenodd">
        <g id="Error-2" transform="translate(-550.000000, -249.000000)">
            <g id="Group-5" transform="translate(510.000000, 249.000000)">
                <g id="Group-7">
                    <g id="Artboard-2" transform="translate(40.000000, 0.000000)">
                        <circle id="Oval" fill="url(#linearGradient-1)" fill-rule="nonzero" cx="150" cy="150" r="150"></circle>
                        <path d="M167.54375,207.03125 L132.5,207.03125 L133.09375,205.625 C135.39375,200.16875 135.63125,195.49375 135.28125,190.15625 L135.2125,189.075 L164.78125,188.9875 L164.78125,190 C164.78125,193.45 165.7375,201.28125 167.14375,205.7125 L167.54375,207.03125 Z M135.49375,205 L164.8,205 C163.69389,200.41376 163.009788,195.735922 162.75625,191.025 L137.34375,191.10625 C137.58125,195.8375 137.29375,200.14375 135.49375,205 Z" id="Shape" fill="#4086FF" fill-rule="nonzero"></path>
                        <path d="M122.38125,191.00625 C95.75625,191.00625 74.18125,190.8625 73.2375,190.525 C70.95625,189.7125 67.975,186.55625 67.9375,184.3125 C67.85,179.4625 67.64375,172.85 67.4,165.2 C66.66875,142.13125 65.675,110.53125 66.96875,93.05 C67.2000474,89.8942882 69.8171419,87.445863 72.98125,87.425 L73.08125,87.425 L226.60625,87.65625 C229.864926,87.7232612 232.484799,90.3597165 232.53125,93.61875 C232.65,98.725 232.81875,103.94375 232.9875,109.24375 C233.6875,131.39375 234.4125,154.3 231.9625,175.95625 C231.8625,176.8125 231.825,177.75625 231.78125,178.73125 C231.56875,183.275 231.3125,188.93125 225.45625,190.0875 C222.59375,190.625 165.775,191.00625 122.38125,191.00625 Z M73.00625,89.0375 C70.6943631,89.0645623 68.7906553,90.8622064 68.63125,93.16875 C67.34375,110.56875 68.34375,142.1125 69.06875,165.15 C69.3125,172.80625 69.51875,179.41875 69.60625,184.28125 C69.60625,185.7 71.99375,188.33125 73.81875,188.9875 C77.0875,189.65 221.425,189.1625 225.18125,188.45625 C229.775,187.54375 229.98125,183.0125 230.18125,178.625 C230.23125,177.6125 230.275,176.63125 230.375,175.74375 C232.8125,154.2 232.0875,131.36875 231.3875,109.2625 C231.21875,103.96875 231.05625,98.74375 230.9375,93.6375 C230.911359,91.2563549 229.005522,89.3228977 226.625,89.2625 L73.10625,89.0375 L73.00625,89.0375 Z" id="Shape" fill="#4086FF" fill-rule="nonzero"></path>
                        <g id="Group" opacity="0.4" transform="translate(71.875000, 92.500000)" fill="#4086FF">
                            <path d="M150.4375,0.4125 L5.7875,0.224418705 C3.1875,0.1875 1,1.96875 0.7875,4.3 C-0.83125,23.675 1.375,64.05625 1.70625,80.3125 C1.7375,81.9 4.31875,84.275 6.1875,84.8625 C8.375,85.55625 145.84375,85.03125 149.2,84.44375 C155.23125,83.39375 154.2,77.2125 154.7125,73.25625 C157.575,50.9 155.81875,26.59375 155.25,4.71875 C155.20625,2.35625 153.075,0.45625 150.4375,0.4125 Z" id="Path"></path>
                        </g>
                        <path d="M180.09375,212.6 L119.90625,212.6 C117.835182,212.6 116.15625,210.921068 116.15625,208.85 C116.15625,206.778932 117.835182,205.1 119.90625,205.1 L180.09375,205.1 C182.164818,205.1 183.84375,206.778932 183.84375,208.85 C183.84375,210.921068 182.164818,212.6 180.09375,212.6 Z M119.90625,206.75625 C118.789224,206.817166 117.914692,207.740689 117.914692,208.859375 C117.914692,209.978061 118.789224,210.901584 119.90625,210.9625 L180.09375,210.9625 C181.210776,210.901584 182.085308,209.978061 182.085308,208.859375 C182.085308,207.740689 181.210776,206.817166 180.09375,206.75625 L119.90625,206.75625 Z" id="Shape" fill="#4086FF" fill-rule="nonzero"></path>
                        <g id="Group" opacity="0.25" transform="translate(166.250000, 109.375000)" fill="#F7F8F9" fill-rule="nonzero">
                            <path d="M4.7,32.95625 L29.31875,10.7 C30.5375,9.6 28.73125,7.80625 27.51875,8.90625 L2.90625,31.15625 C1.6875,32.25625 3.49375,34.05 4.7,32.95625 Z" id="Path"></path>
                            <path d="M32.5,44.30625 L57.1125,22.05 C58.33125,20.95 56.53125,19.1625 55.31875,20.25625 L30.725,42.5 C29.5125,43.6 31.3125,45.39375 32.525,44.3 L32.5,44.30625 Z" id="Path"></path>
                            <path d="M2.29375,52.7125 L53.8875,2.40625 C55.0625,1.2625 53.2625,-0.5375 52.0875,0.60625 L0.49375,50.91875 C-0.675,52.0625 1.11875,53.85625 2.29375,52.7125 Z" id="Path"></path>
                        </g>
                        <path d="M183.1875,173.39375 C199.98125,171.51875 207.025,192.81875 210.85,201.075 C219.8875,220.59375 253.975,218.41875 269.53125,218.41875" id="Path" stroke="#4086FF" stroke-width="5" stroke-linecap="round" stroke-linejoin="round"></path>
                        <path d="M188.975,174.375 C188.975,183.0125 182.4375,188.23125 176.84375,188.23125 L167.68125,188.23125 L167.68125,160.50625 L176.875,160.50625 C182.4375,160.50625 188.975,165.71875 188.975,174.375 Z" id="Path" fill="#FDAE2B" fill-rule="nonzero"></path>
                        <path d="M184.25,174.375 C184.25,182.81875 179.25,189.6625 173.0875,189.6625 L162.96875,189.6625 L162.96875,159.075 L173.0875,159.075 C179.25,159.075 184.25,165.9125 184.25,174.375 Z" id="Path" fill="#EF8417" fill-rule="nonzero"></path>
                        <ellipse id="Oval" fill="#FFC840" fill-rule="nonzero" cx="163.69375" cy="174.35625" rx="11.1625" ry="15.2875"></ellipse>
                        <path d="M164.625,179.775 C164.449335,180.790707 163.511333,181.49266 162.487315,181.374736 C161.463297,181.256813 160.709404,180.360024 160.769208,179.330975 C160.829012,178.301926 161.681716,177.498507 162.7125,177.499998 C163.865858,177.605837 164.718938,178.620612 164.625,179.775 Z" id="Path" fill="#EF8417" fill-rule="nonzero"></path>
                        <path d="M164.625,168.94375 C164.449335,169.959457 163.511333,170.66141 162.487315,170.543486 C161.463297,170.425563 160.709404,169.528774 160.769208,168.499725 C160.829012,167.470676 161.681716,166.667257 162.7125,166.668748 C163.865858,166.774587 164.718938,167.789362 164.625,168.94375 Z" id="Path" fill="#EF8417" fill-rule="nonzero"></path>
                        <path d="M108.64375,167.61875 C89.125,166.6 77.76875,176.66875 69.7,195.0125 C59.225,218.81875 44.5875,220.71875 38,220.5875" id="Path" stroke="#4086FF" stroke-width="5" stroke-linecap="round" stroke-linejoin="round"></path>
                        <path d="M101.15625,169.20625 C101.875,177.81875 108.81875,182.5 114.375,182.00625 L123.525,181.25 L121.25,153.63125 L112.0875,154.375 C106.51875,154.85625 100.4375,160.625 101.15625,169.20625 Z" id="Path" fill="#FDAE2B" fill-rule="nonzero"></path>
                        <path d="M105.8625,168.8125 C106.5625,177.225 112.1125,183.63125 118.25625,183.11875 L128.3375,182.275 L125.79375,151.8125 L115.71875,152.65625 C109.575,153.16875 105.1625,160.4 105.8625,168.8125 Z" id="Path" fill="#EF8417" fill-rule="nonzero"></path>
                        <ellipse id="Oval" fill="#FFC840" fill-rule="nonzero" transform="translate(126.349428, 167.101652) rotate(-4.770000) translate(-126.349428, -167.101652) " cx="126.349428" cy="167.101652" rx="11.1625" ry="15.2875"></ellipse>
                        <path d="M125.86875,172.58125 C126.127567,173.578964 127.120184,174.201169 128.130955,173.999274 C129.141726,173.79738 129.819151,172.841595 129.674826,171.821012 C129.530502,170.800429 128.614619,170.06996 127.5875,170.15625 C126.446632,170.35666 125.67993,171.438406 125.86875,172.58125 Z" id="Path" fill="#FDAE2B" fill-rule="nonzero"></path>
                        <path d="M125,161.7875 C125.255223,162.791918 126.253575,163.41946 127.269332,163.213953 C128.285088,163.008446 128.960979,162.042171 128.805686,161.017536 C128.650392,159.9929 127.718534,159.270296 126.6875,159.375 C125.564982,159.590239 124.817236,160.659239 125,161.7875 Z" id="Path" fill="#FDAE2B" fill-rule="nonzero"></path>
                        <path d="M127.1875,163.2 L141.4375,162.0125 C142.308212,161.933187 142.950891,161.164767 142.875,160.29375 L142.875,160.29375 C142.843079,159.87339 142.645269,159.482988 142.325189,159.208634 C142.005109,158.93428 141.589047,158.798505 141.16875,158.83125 L126.925,160 C125.8375,160.1125 126.04375,163.29375 127.1875,163.2 Z" id="Path" fill="#E2E8ED" fill-rule="nonzero"></path>
                        <path d="M128.125,173.99375 L142.36875,172.80625 C142.787622,172.769761 143.174715,172.567949 143.444462,172.245425 C143.71421,171.922901 143.844398,171.506225 143.80625,171.0875 L143.80625,171.0875 C143.775965,170.668158 143.579276,170.27833 143.259976,170.004811 C142.940675,169.731293 142.52527,169.59679 142.10625,169.63125 L127.85625,170.81875 C126.7375,170.90625 126.94375,174.09375 128.125,173.99375 Z" id="Path" fill="#E2E8ED" fill-rule="nonzero"></path>
                        <path d="M162.25,138.8875 L150.375,118.2625 C150.034416,117.705058 149.428253,117.365061 148.775,117.365061 C148.121747,117.365061 147.515584,117.705058 147.175,118.2625 L135.2375,138.85625 C134.926259,139.429741 134.935547,140.123799 135.262024,140.688756 C135.5885,141.253713 136.185208,141.608313 136.8375,141.625 L160.63125,141.66875 C161.290662,141.660795 161.897416,141.307012 162.229141,140.737059 C162.560867,140.167106 162.568787,139.464789 162.25,138.8875 Z" id="Path" fill="#4086FF" fill-rule="nonzero"></path>
                        <path d="M158.9125,139.675 C158.791418,139.714831 158.664956,139.735908 158.5375,139.7375 L138.9625,139.7 C138.552034,139.699223 138.1731,139.479727 137.968204,139.124058 C137.763308,138.768389 137.763516,138.330474 137.96875,137.975 L147.7875,121.04375 C147.990947,120.686699 148.370305,120.466238 148.78125,120.466238 C149.192195,120.466238 149.571553,120.686699 149.775,121.04375 L159.5375,138.01875 C159.704485,138.316578 159.731295,138.672982 159.610745,138.992439 C159.490195,139.311897 159.234613,139.561738 158.9125,139.675 L158.9125,139.675 Z M139.50625,138.24375 L158,138.275 L148.78125,122.24375 L139.50625,138.24375 Z" id="Shape" fill="#B5DDF7" fill-rule="nonzero"></path>
                        <path d="M148.54375,134.8875 L148.54375,134.8875 C148.172893,134.867445 147.883612,134.558879 147.8875,134.1875 L147.84375,127.5 C147.846758,127.203737 147.970512,126.921527 148.1864,126.718616 C148.402288,126.515704 148.691619,126.40966 148.9875,126.425 L148.9875,126.425 C149.28312,126.440721 149.559555,126.576278 149.75299,126.80038 C149.946425,127.024481 150.04014,127.317755 150.0125,127.6125 L149.26875,134.25625 C149.235651,134.627135 148.915662,134.905747 148.54375,134.8875 Z" id="Path" fill="#B5DDF7" fill-rule="nonzero"></path>
                        <path d="M149.4625,136.50625 C149.459055,136.895469 149.141348,137.208529 148.75212,137.20625 C148.362893,137.203946 148.048893,136.887168 148.050028,136.497935 C148.051169,136.108703 148.367016,135.793765 148.75625,135.79375 C149.14731,135.79718 149.462515,136.115175 149.4625,136.50625 Z" id="Path" fill="#B5DDF7" fill-rule="nonzero"></path>
                    </g>
                </g>
            </g>
        </g>
    </g>
</svg>