<?xml version="1.0" encoding="UTF-8"?><svg version="1.1" width="36px" height="48px" viewBox="0 0 36.0 48.0" xmlns="http://www.w3.org/2000/svg" xmlns:xlink="http://www.w3.org/1999/xlink"><defs><clipPath id="i0"><path d="M1440,0 L1440,1830 L0,1830 L0,0 L1440,0 Z"></path></clipPath><clipPath id="i1"><path d="M21,0 L21.0003662,12 C21,13.6593761 22.3406253,15 24,15 L36,15 L36,43.5 C36,45.9853134 33.9853134,48 31.5,48 L4.5,48 C2.01468801,48 0,45.984375 0,43.5 L0,4.5 C0,2.01468658 2.01468801,0 4.5,0 L21,0 Z M18,19.5 C16.7578125,19.5 15.75,20.5125003 15.75,21.75 L15.75,31.3218756 L12.0093756,27.65625 C11.6531253,27.2156239 11.0812497,27 10.5,27 C9.91875029,27 9.34875011,27.2156239 8.90906239,27.65625 C8.03015614,28.5351562 8.03015614,29.9587498 8.90906239,30.8381252 L16.4090624,38.3381252 C17.2879686,39.2170315 18.7115622,39.2170315 19.5909376,38.3381252 L27.0909376,30.8381252 C27.9698439,29.959219 27.9698439,28.5356255 27.0909376,27.65625 C26.2120314,26.7768745 24.7874994,26.7843761 23.90625,27.65625 L20.25,31.3218756 L20.25,21.75 C20.25,20.5078125 19.2421875,19.5 18,19.5 Z M24,0 L36,12 L24,12 L24,0 Z"></path></clipPath></defs><g transform="translate(-468.0 -668.0)"><g clip-path="url(#i0)"><g transform="translate(468.0 668.0)"><g clip-path="url(#i1)"><polygon points="0,0 36,0 36,48 0,48 0,0" stroke="none" fill="#98A6AD"></polygon></g></g></g></g></svg>