<?xml version="1.0" encoding="UTF-8"?>
<svg width="230px" height="60px" viewBox="0 0 230 60" version="1.1" xmlns="http://www.w3.org/2000/svg" xmlns:xlink="http://www.w3.org/1999/xlink">
    <!-- Generator: Sketch 55.2 (78181) - https://sketchapp.com -->
    <title>Logo Set - Black</title>
    <desc>Created with Sketch.</desc>
    <defs>
        <path d="M8.46838464,9.80735149 L5.81263211,9.15540978 C3.24555183,8.53256381 2.92078815,7.19674906 2.92078815,6.30747986 C2.92078815,4.43894194 4.75064997,3.22222244 6.72707243,3.22222244 C8.94056748,3.22222244 10.5632821,4.52807845 10.5632821,6.57488938 L13.3077069,6.57488938 C13.3077069,2.89575844 10.4746098,0.582524272 6.75699779,0.582524272 C3.30429873,0.582524272 0.177221872,2.89575844 0.177221872,6.33657559 C0.177221872,8.1169633 0.825768071,10.5783884 5.13416055,11.6758894 L7.76011038,12.3288174 C9.58911368,12.7433083 11.3890501,13.7817548 11.2118283,15.97688 C10.976718,17.5199402 9.70758865,18.9730009 7.11156418,18.9730009 C4.5444839,18.9730009 2.77324634,17.1344218 2.74344363,15.3539108 L-3.05533376e-13,15.3539108 C-3.05533376e-13,18.5574004 2.95059086,21.5533981 7.11156418,21.5533981 C11.0943345,21.5533981 13.5428171,19.151274 13.8975062,16.2142075 C14.3109421,12.9516634 12.2747916,10.7857572 8.46838464,9.80735149" id="path-1"></path>
        <polygon id="path-2" points="16.8565592 20.9708738 19.7628625 20.9708738 19.7628625 6.99029126 16.8565592 6.99029126"></polygon>
        <path d="M18.6003412,-1.77635684e-14 C17.6593018,-1.77635684e-14 16.8565592,0.739954391 16.8565592,1.74695721 C16.8565592,2.75408316 17.6593018,3.49514563 18.6003412,3.49514563 C19.5685337,3.49514563 20.3441232,2.75408316 20.3441232,1.74695721 C20.3441232,0.739954391 19.5685337,-1.77635684e-14 18.6003412,-1.77635684e-14" id="path-3"></path>
        <path d="M49.993595,13.7092593 C49.993595,13.8009399 49.9891881,13.8913382 49.9816964,13.9805825 C49.9911712,13.887235 49.9973408,13.7931182 49.9973408,13.6983602 C49.9973408,13.5974475 49.9900695,13.4975605 49.979493,13.3980583 C49.9883067,13.5002532 49.993595,13.6037305 49.993595,13.7092593" id="path-4"></path>
        <polygon id="path-5" points="71.4950614 20.9708738 74.4013647 20.9708738 74.4013647 -1.42108547e-14 71.4950614 -1.42108547e-14"></polygon>
        <path d="M106.371161,-1.77635684e-14 C105.42945,-1.77635684e-14 104.626919,0.739954391 104.626919,1.74695721 C104.626919,2.75408316 105.42945,3.49514563 106.371161,3.49514563 C107.339098,3.49514563 108.114483,2.75408316 108.114483,1.74695721 C108.114483,0.739954391 107.339098,-1.77635684e-14 106.371161,-1.77635684e-14" id="path-6"></path>
        <polygon id="path-7" points="105.20818 20.9708738 108.114483 20.9708738 108.114483 6.99029126 105.20818 6.99029126"></polygon>
        <polygon id="path-8" points="116.218225 1.74757282 113.515675 1.74757282 113.515675 7.00940622 111.020786 7.00940622 111.020786 9.31075932 113.515675 9.31075932 113.515675 20.9708738 116.218225 20.9708738 116.218225 9.31075932 119.158436 9.31075932 119.158436 7.00940622 116.218225 7.00940622"></polygon>
        <polygon id="path-9" points="149.565341 15.8227353 140.453885 0.582524272 137.758777 0.582524272 137.758777 20.9708738 140.483609 20.9708738 140.483609 5.61263747 149.682069 20.9708738 152.290293 20.9708738 152.290293 0.582524272 149.565341 0.582524272"></polygon>
        <polygon id="path-10" points="158.042169 12.2422997 166.454729 12.2422997 166.454729 9.66772889 158.042169 9.66772889 158.042169 3.15697351 167.678712 3.15697351 167.678712 0.582524272 155.196597 0.582524272 155.196597 20.9708738 167.984331 20.9708738 167.984331 18.396303 158.042169 18.396303"></polygon>
        <polygon id="path-11" points="170.890635 0.582524272 170.890635 3.18699659 177.059969 3.18699659 177.059969 20.9708738 179.834199 20.9708738 179.834199 3.18699659 186.003412 3.18699659 186.003412 0.582524272"></polygon>
        <path d="M50.1930692,14.4841511 C50.0933409,16.1829292 49.0589987,17.6317609 47.5936088,18.3283028 C46.964582,18.6156187 46.2800275,18.7648514 45.6085238,18.7648514 C45.4003257,18.7648514 45.1958212,18.7514964 44.9952565,18.7276045 C43.4131476,18.5115969 42.0893472,17.4920849 41.4521944,16.0953254 C41.1905616,15.5217964 41.0436779,14.8852906 41.0436779,14.2144785 C41.0436779,13.1872476 41.3854626,12.239534 41.9617935,11.4774425 C42.7974179,10.3724096 44.12602,9.65773436 45.6226828,9.65773436 C48.0546981,9.65773436 50.0428612,11.5447075 50.1917148,13.9275302 C50.1977478,14.0224853 50.2016877,14.1180531 50.2016877,14.2144785 C50.2016877,14.3050228 50.1982403,14.394832 50.1930692,14.4841511 L50.1930692,14.4841511 Z M52.8821618,14.362731 L52.8821618,14.2144785 C52.8821618,11.9653281 51.849174,9.95632234 50.2296362,8.63136116 C48.9763843,7.60609067 47.3717442,6.99029126 45.6226828,6.99029126 C45.1782148,6.99029126 44.7429809,7.03023368 44.3205517,7.10644284 C40.9327456,7.7170963 38.3632037,10.6670769 38.3632037,14.2144785 C38.3632037,17.7033142 40.8486537,20.6145776 44.1535992,21.2905357 C44.6281088,21.3875737 45.1193628,21.4386657 45.6226828,21.4386657 C47.3802396,21.4386657 48.9917745,20.8171077 50.2476119,19.7827705 C50.0820137,23.8951246 48.1973957,25.4265366 45.3424586,25.4265366 C43.8014722,25.4265366 42.172331,24.6004882 41.3433551,23.0679734 C40.9872883,23.2450188 39.4472869,24.0998601 39.09122,24.247255 C40.4253626,26.6643841 42.794463,27.961165 45.3424586,27.961165 C49.9036109,27.961165 52.8947202,25.4851025 52.8947202,19.0005852 L52.8947202,14.362731 L52.8821618,14.362731 Z" id="path-12"></path>
        <path d="M88.6683559,16.3339758 C88.1214616,17.4224669 87.1558321,18.2628552 85.9826834,18.6424809 C85.5385629,18.7862299 85.0652368,18.8647732 84.5735495,18.8647732 C84.4101467,18.8647732 84.2489619,18.8558815 84.0901186,18.8390861 C82.2765441,18.6486557 80.7789311,17.3978913 80.2231643,15.7167443 C80.072947,15.2622802 79.990383,14.7769421 79.990383,14.2718447 C79.990383,14.0264587 80.0099765,13.7858891 80.0469455,13.5510003 C80.3922357,11.3569757 82.2870187,9.67891612 84.5735495,9.67891612 C84.6299888,9.67891612 84.6858119,9.68113905 84.7417583,9.68311498 C85.4026403,9.70707314 86.0276624,9.87058145 86.5883584,10.1462238 C87.5648322,10.6260046 88.3456168,11.4435462 88.7796325,12.4470722 C89.0216561,13.0065077 89.1564696,13.6232452 89.1564696,14.2718447 C89.1564696,15.0136833 88.9798811,15.7137804 88.6683559,16.3339758 M91.8041873,13.5548286 C91.6093608,11.5585207 90.6102127,9.79883045 89.135767,8.60512102 C87.8885571,7.59542019 86.3016024,6.99029126 84.5735495,6.99029126 C84.1866076,6.99029126 83.8069363,7.0209182 83.436384,7.07933166 C79.9636421,7.62629411 77.307668,10.6379837 77.307668,14.2718447 C77.307668,17.8361775 79.863333,20.8019267 83.2383535,21.4302728 C83.6711369,21.510792 84.1172292,21.5533981 84.5735495,21.5533981 C86.3016024,21.5533981 87.8885571,20.9482691 89.135767,19.9385683 L89.135767,21.2043992 L91.8041873,21.2043992 L91.8041873,14.9887372 C91.8272312,14.7528604 91.8391846,14.5138962 91.8391846,14.2718447 C91.8391846,14.0299166 91.8272312,13.7907054 91.8041873,13.5548286" id="path-13"></path>
        <path d="M67.9987438,14.5625158 L67.9987438,6.99029126 L65.3607351,6.99029126 L65.3607351,9.87177334 L65.3607351,14.886425 C65.3607351,16.7892699 63.8136496,18.3318387 61.9051115,18.3318387 C59.996695,18.3318387 58.4496095,16.7892699 58.4496095,14.886425 L58.4496095,9.87189456 L58.4496095,6.99029126 L55.8010235,6.99029126 L55.8010235,14.3426164 C55.8010235,14.4668705 55.8032119,14.5893062 55.807224,14.7102873 C55.8055219,14.7688382 55.8028472,14.8273891 55.8028472,14.886425 C55.8028472,15.6240698 55.9346382,16.3310452 56.1757282,16.9852883 C56.525023,17.9328922 57.104709,18.7690918 57.8462158,19.4284262 C58.924738,20.387304 60.3463545,20.9708738 61.9051115,20.9708738 C63.1775513,20.9708738 64.3586857,20.5822313 65.3364194,19.9180479 C66.8647818,18.8797688 67.8957668,17.1677296 67.9987438,15.2102129 C68.0043364,15.1029301 68.0074974,14.9950412 68.0074974,14.886425 C68.0074974,14.7776875 68.0043364,14.6697986 67.9987438,14.5625158" id="path-14"></path>
        <path d="M134.26226,14.6986679 L134.26226,14.1406782 L134.26226,6.99029126 L131.564103,6.99029126 L131.564103,9.88023205 L131.564103,15.0313946 C131.564103,16.9860396 129.98162,18.5706008 128.02969,18.5706008 C126.077761,18.5706008 124.495402,16.9860396 124.495402,15.0313946 L124.495402,9.88035658 L124.495402,6.99029126 L121.786551,6.99029126 L121.786551,14.4727823 C121.786551,14.6004189 121.788665,14.7261876 121.792769,14.850462 C121.791028,14.9106068 121.788292,14.9707517 121.788292,15.0313946 C121.788292,15.78912 121.923088,16.5153409 122.169675,17.1873941 C122.526934,18.160794 123.119837,19.019757 123.87825,19.6970402 C124.981363,20.6820208 126.435393,21.2814768 128.02969,21.2814768 C129.331142,21.2814768 130.539207,20.8822546 131.539358,20.1999905 C131.544705,20.1962548 131.549679,20.1921455 131.555026,20.1885343 C131.249372,23.9619691 129.38996,25.3850234 126.634603,25.3850234 C125.078232,25.3850234 123.432827,24.5456107 122.595576,22.9879465 C122.235954,23.1680075 120.680454,24.0368078 120.320957,24.186485 C121.668419,26.6432086 124.061046,27.961165 126.634603,27.961165 C131.24129,27.961165 134.26226,25.4446702 134.26226,18.8542653 L134.26226,15.3639968 C134.26798,15.2537935 134.271213,15.1429676 134.271213,15.0313946 C134.271213,14.9196971 134.26798,14.8088712 134.26226,14.6986679" id="path-15"></path>
        <path d="M102.26337,6.99029126 C101.985667,6.99029126 101.712044,7.00595077 101.442245,7.03465986 C101.323029,7.04721232 101.204323,7.06187757 101.086765,7.07977415 C100.647004,7.14713488 100.220248,7.25227727 99.8093036,7.39047862 C98.9789984,7.66986407 98.2148678,8.0873266 97.5450901,8.61428138 C95.924771,9.88916395 94.8583288,11.8058377 94.7540306,13.9685893 C94.748548,14.08442 94.7454879,14.200872 94.7454879,14.3180697 C94.7454879,14.434646 94.748548,14.5506009 94.7540306,14.6656859 L94.7540306,20.9708738 L97.5213743,20.9708738 L97.5213743,20.0020973 L97.5213743,14.3180697 C97.5213743,14.0712461 97.5416475,13.8291452 97.5798986,13.5927612 C97.7019198,12.8386193 98.0109891,12.1451269 98.4594202,11.5587655 C99.3177762,10.4361281 100.686913,9.70646972 102.231622,9.69652718 C102.242205,9.69652718 102.25266,9.69603005 102.26337,9.69603005 C102.276248,9.69603005 102.288999,9.69677574 102.301876,9.69690002 L102.301876,7.0807684 L102.301876,6.99103695 C102.288999,6.99091267 102.276248,6.99029126 102.26337,6.99029126" id="path-16"></path>
        <path d="M23.2591801,13.3985937 L23.2591801,20.9708738 L25.8971888,20.9708738 L25.8971888,18.0892955 L25.8971888,13.0748085 C25.8971888,11.1718589 27.4442742,9.6293035 29.3528124,9.6293035 C31.2612289,9.6293035 32.8083144,11.1718589 32.8083144,13.0748085 L32.8083144,18.0891742 L32.8083144,20.9708738 L35.4569004,20.9708738 L35.4569004,13.6184911 C35.4569004,13.4942381 35.454712,13.3718035 35.4506999,13.2509447 C35.452402,13.1921519 35.4550767,13.1338439 35.4550767,13.0748085 C35.4550767,12.3370489 35.3232857,11.6300797 35.0821957,10.9758422 C34.7329008,10.0282465 34.1532149,9.19193298 33.4117081,8.53272543 C32.3331859,7.57385603 30.9115694,6.99029126 29.3528124,6.99029126 C28.0803726,6.99029126 26.8992382,7.37893036 25.9215045,8.04310804 C24.3931421,9.08137813 23.362157,10.7934025 23.2591801,12.7509022 C23.2535875,12.8581841 23.2504265,12.966072 23.2504265,13.0748085 C23.2504265,13.1834238 23.2535875,13.2913118 23.2591801,13.3985937" id="path-17"></path>
        <path d="M4.56982722,16.1789394 C4.02726569,13.478298 4.36450371,10.7142698 5.66985379,8.17104884 C6.96547349,5.62487393 9.16355592,3.35009243 11.7121787,1.39470592 C12.0325425,1.14903641 12.123072,0.72206871 11.9002585,0.38630397 C11.6515793,0.0110302568 11.112836,-0.112050659 10.6955378,0.111587365 C7.67406747,1.72936293 4.79399566,3.84733934 2.76650295,6.73223293 C0.704769132,9.58857175 -0.198186281,13.187827 0.036205228,16.6193229 C0.213815609,20.0697733 1.81058467,23.7313075 4.47363186,26.3994556 C7.11598658,29.0879121 10.3132198,30.8532617 13.219773,32.4816222 C16.1456639,34.0920129 18.9108186,35.5936001 20.9544465,37.4193824 C23.0207376,39.2078712 24.3538008,41.3503407 24.8821978,43.9744258 C25.4771064,46.5860798 25.1981275,49.2587819 23.9579341,51.7684018 C22.7429904,54.2925452 20.5881405,56.5759423 18.1382996,58.6615485 C17.8657256,58.8931867 17.7792606,59.2731375 17.96266,59.5873631 C18.1841187,59.964483 18.7035243,60.1097185 19.1240249,59.9109428 C22.2488345,58.4315102 25.2135237,56.3646124 27.3579042,53.4750417 C29.5325845,50.6043024 30.4505666,46.8910743 30.1792242,43.3835143 C30.0364708,41.6239496 29.5611598,39.8144139 28.7446694,38.1112202 C27.9082255,36.414919 26.709417,34.8663149 25.3485175,33.5574725 C22.5672276,30.9497571 19.3332899,29.2906263 16.4014869,27.7204831 C13.4477597,26.1717559 10.6729978,24.725309 8.5692632,22.9134348 C6.42549851,21.1457467 5.07691594,18.8772423 4.56982722,16.1789394" id="path-18"></path>
        <path d="M11.9811979,58.7693318 L11.9755244,58.7646444 C10.3106623,57.2054607 8.76108023,55.6191393 7.53295468,53.8997199 C2.66571955,46.270205 6.929756,39.3566316 7.95520583,37.5780027 L8.00397355,37.4953561 C8.39520167,36.8135833 8.37938837,35.9380227 7.89074554,35.2574835 C7.2234487,34.3281409 5.71370167,34.0784742 4.78325232,34.7444578 C0.961746656,37.8097832 0.610353549,44.1812196 0.581260662,45.4953005 C0.580658356,46.8145624 0.797698826,48.1414721 1.14341846,49.4197807 C1.53452587,50.6889611 2.07266069,51.9016458 2.76132358,53.0020792 C3.4760603,54.0826526 4.26732853,55.0846502 5.16747913,55.9537964 C6.96959102,57.6870314 9.03702824,58.9876669 11.2070708,59.9400764 C11.4755346,60.057632 11.8014575,60.0018764 12.0141523,59.7758934 C12.283099,59.488974 12.26801,59.038365 11.9811979,58.7693318" id="path-19"></path>
        <path d="M18.2443325,1.23072005 L18.2494027,1.23540745 C19.9149594,2.79446402 21.4640225,4.38102827 22.6922151,6.10019682 C27.5603198,13.7304335 23.2960503,20.6433735 22.2705445,22.4219981 L22.2217741,22.5046445 C21.829921,23.1864157 21.8464595,24.0620975 22.335129,24.7426351 C23.0023416,25.6718521 24.5115675,25.9215182 25.442792,25.2555362 C29.2639029,22.1903415 29.6157981,15.8194139 29.6442937,14.5053361 C29.6456156,13.1860775 29.4284426,11.8586775 29.0828247,10.5801253 C28.6915753,9.31094794 28.153411,8.09826615 27.4647105,6.99857557 C26.7499347,5.91738791 25.9580197,4.91489937 25.0584235,4.04624866 C23.2556096,2.31363464 21.188663,1.01238552 19.0186226,0.0599782264 C18.7501441,-0.0577003845 18.4234791,-0.00182154722 18.211497,0.224160859 C17.9430184,0.511202921 17.9569011,0.961687499 18.2443325,1.23072005" id="path-20"></path>
    </defs>
    <g id="SNET-DAPP-Redesign-v2" stroke="none" stroke-width="1" fill="none" fill-rule="evenodd">
        <g id="DAPP---Signup" transform="translate(-196.000000, -26.000000)">
            <g id="Logo-Set---Black" transform="translate(196.000000, 26.000000)">
                <g id="Logo-set">
                    <g id="Logo-text" transform="translate(43.594550, 19.223301)">
                        <g id="Fill-1">
                            <use fill="#000000" xlink:href="#path-1"></use>
                            <use fill="#220D3A" xlink:href="#path-1"></use>
                        </g>
                        <g id="Fill-3">
                            <use fill="#000000" xlink:href="#path-2"></use>
                            <use fill="#220D3A" xlink:href="#path-2"></use>
                        </g>
                        <g id="Fill-5">
                            <use fill="#000000" xlink:href="#path-3"></use>
                            <use fill="#220D3A" xlink:href="#path-3"></use>
                        </g>
                        <g id="Fill-6">
                            <use fill="#000000" xlink:href="#path-4"></use>
                            <use fill="#220D3A" xlink:href="#path-4"></use>
                        </g>
                        <g id="Fill-7">
                            <use fill="#000000" xlink:href="#path-5"></use>
                            <use fill="#220D3A" xlink:href="#path-5"></use>
                        </g>
                        <g id="Fill-8">
                            <use fill="#000000" xlink:href="#path-6"></use>
                            <use fill="#220D3A" xlink:href="#path-6"></use>
                        </g>
                        <g id="Fill-9">
                            <use fill="#000000" xlink:href="#path-7"></use>
                            <use fill="#220D3A" xlink:href="#path-7"></use>
                        </g>
                        <g id="Fill-10">
                            <use fill="#000000" xlink:href="#path-8"></use>
                            <use fill="#220D3A" xlink:href="#path-8"></use>
                        </g>
                        <g id="Fill-11">
                            <use fill="#000000" xlink:href="#path-9"></use>
                            <use fill="#220D3A" xlink:href="#path-9"></use>
                        </g>
                        <g id="Fill-12">
                            <use fill="#000000" xlink:href="#path-10"></use>
                            <use fill="#220D3A" xlink:href="#path-10"></use>
                        </g>
                        <g id="Fill-13">
                            <use fill="#000000" xlink:href="#path-11"></use>
                            <use fill="#220D3A" xlink:href="#path-11"></use>
                        </g>
                        <g id="Fill-14">
                            <use fill="#000000" xlink:href="#path-12"></use>
                            <use fill="#220D3A" xlink:href="#path-12"></use>
                        </g>
                        <g id="Fill-15">
                            <use fill="#000000" xlink:href="#path-13"></use>
                            <use fill="#220D3A" xlink:href="#path-13"></use>
                        </g>
                        <g id="Fill-16">
                            <use fill="#000000" xlink:href="#path-14"></use>
                            <use fill="#220D3A" xlink:href="#path-14"></use>
                        </g>
                        <g id="Fill-17">
                            <use fill="#000000" xlink:href="#path-15"></use>
                            <use fill="#220D3A" xlink:href="#path-15"></use>
                        </g>
                        <g id="Fill-18">
                            <use fill="#000000" xlink:href="#path-16"></use>
                            <use fill="#220D3A" xlink:href="#path-16"></use>
                        </g>
                        <g id="Fill-19">
                            <use fill="#000000" xlink:href="#path-17"></use>
                            <use fill="#220D3A" xlink:href="#path-17"></use>
                        </g>
                    </g>
                    <g id="Logo-icon-">
                        <g id="Fill-20">
                            <use fill="#000000" xlink:href="#path-18"></use>
                            <use fill="#220D3A" xlink:href="#path-18"></use>
                        </g>
                        <g id="Fill-21">
                            <use fill="#000000" xlink:href="#path-19"></use>
                            <use fill="#220D3A" xlink:href="#path-19"></use>
                        </g>
                        <g id="Fill-22">
                            <use fill="#000000" xlink:href="#path-20"></use>
                            <use fill="#220D3A" xlink:href="#path-20"></use>
                        </g>
                    </g>
                </g>
            </g>
        </g>
    </g>
</svg>