<?xml version="1.0" encoding="UTF-8"?>
<svg width="231px" height="60px" viewBox="0 0 231 60" version="1.1" xmlns="http://www.w3.org/2000/svg" xmlns:xlink="http://www.w3.org/1999/xlink">
    <!-- Generator: Sketch 55.2 (78181) - https://sketchapp.com -->
    <title>Logo Set - White</title>
    <desc>Created with Sketch.</desc>
    <g id="Symbols" stroke="none" stroke-width="1" fill="none" fill-rule="evenodd">
        <g id="Global-Footer" transform="translate(-84.000000, -14.000000)" fill="#FFFFFF">
            <g id="Group-10">
                <g transform="translate(60.000000, 11.000000)">
                    <g id="Group-2" transform="translate(23.000000, 0.000000)">
                        <g id="text">
                            <g id="Group-9" transform="translate(1.000000, 0.000000)">
                                <g id="Group-7">
                                    <g id="Logo-Set---White" transform="translate(-0.000000, 3.000000)">
                                        <g id="Logo-set">
                                            <g id="Logo-text" transform="translate(43.784091, 19.223301)">
                                                <path d="M8.5052037,9.80735149 L5.83790442,9.15540978 C3.25966292,8.53256381 2.93348723,7.19674906 2.93348723,6.30747986 C2.93348723,4.43894194 4.77130497,3.22222244 6.75632058,3.22222244 C8.97943951,3.22222244 10.6092094,4.52807845 10.6092094,6.57488938 L13.3655665,6.57488938 C13.3655665,2.89575844 10.5201516,0.582524272 6.78637604,0.582524272 C3.31866525,0.582524272 0.177992402,2.89575844 0.177992402,6.33657559 C0.177992402,8.1169633 0.829358367,10.5783884 5.15648299,11.6758894 L7.79384999,12.3288174 C9.63080548,12.7433083 11.4385678,13.7817548 11.2605754,15.97688 C11.0244429,17.5199402 9.74979556,18.9730009 7.14248402,18.9730009 C4.56424253,18.9730009 2.78530394,17.1344218 2.75537165,15.3539108 L-3.05533376e-13,15.3539108 C-3.05533376e-13,18.5574004 2.96341952,21.5533981 7.14248402,21.5533981 C11.1425707,21.5533981 13.6016989,19.151274 13.9579301,16.2142075 C14.3731636,12.9516634 12.3281602,10.7857572 8.5052037,9.80735149" id="Fill-1"></path>
                                                <polygon id="Fill-3" points="16.9298486 20.9708738 19.848788 20.9708738 19.848788 6.99029126 16.9298486 6.99029126"></polygon>
                                                <path d="M18.6812122,-1.77635684e-14 C17.7360814,-1.77635684e-14 16.9298486,0.739954391 16.9298486,1.74695721 C16.9298486,2.75408316 17.7360814,3.49514563 18.6812122,3.49514563 C19.6536142,3.49514563 20.4325759,2.75408316 20.4325759,1.74695721 C20.4325759,0.739954391 19.6536142,-1.77635684e-14 18.6812122,-1.77635684e-14" id="Fill-5"></path>
                                                <path d="M50.2109584,13.7092593 C50.2109584,13.8009399 50.2065324,13.8913382 50.1990082,13.9805825 C50.2085241,13.887235 50.2147206,13.7931182 50.2147206,13.6983602 C50.2147206,13.5974475 50.2074176,13.4975605 50.1967951,13.3980583 C50.2056472,13.5002532 50.2109584,13.6037305 50.2109584,13.7092593" id="Fill-6"></path>
                                                <polygon id="Fill-7" points="71.8059095 20.9708738 74.7248489 20.9708738 74.7248489 -1.42108547e-14 71.8059095 -1.42108547e-14"></polygon>
                                                <path d="M106.833645,-1.77635684e-14 C105.887839,-1.77635684e-14 105.081819,0.739954391 105.081819,1.74695721 C105.081819,2.75408316 105.887839,3.49514563 106.833645,3.49514563 C107.80579,3.49514563 108.584546,2.75408316 108.584546,1.74695721 C108.584546,0.739954391 107.80579,-1.77635684e-14 106.833645,-1.77635684e-14" id="Fill-8"></path>
                                                <polygon id="Fill-9" points="105.665607 20.9708738 108.584546 20.9708738 108.584546 6.99029126 105.665607 6.99029126"></polygon>
                                                <polygon id="Fill-10" points="116.723521 1.74757282 114.009222 1.74757282 114.009222 7.00940622 111.503485 7.00940622 111.503485 9.31075932 114.009222 9.31075932 114.009222 20.9708738 116.723521 20.9708738 116.723521 9.31075932 119.676516 9.31075932 119.676516 7.00940622 116.723521 7.00940622"></polygon>
                                                <polygon id="Fill-11" points="150.215625 15.8227353 141.064555 0.582524272 138.357728 0.582524272 138.357728 20.9708738 141.094407 20.9708738 141.094407 5.61263747 150.332861 20.9708738 152.952425 20.9708738 152.952425 0.582524272 150.215625 0.582524272"></polygon>
                                                <polygon id="Fill-12" points="158.729309 12.2422997 167.178445 12.2422997 167.178445 9.66772889 158.729309 9.66772889 158.729309 3.15697351 168.40775 3.15697351 168.40775 0.582524272 155.871364 0.582524272 155.871364 20.9708738 168.714698 20.9708738 168.714698 18.396303 158.729309 18.396303"></polygon>
                                                <polygon id="Fill-13" points="171.633637 0.582524272 171.633637 3.18699659 177.829795 3.18699659 177.829795 20.9708738 180.616087 20.9708738 180.616087 3.18699659 186.812122 3.18699659 186.812122 0.582524272"></polygon>
                                                <path d="M50.4112999,14.4841511 C50.311138,16.1829292 49.2722987,17.6317609 47.8005375,18.3283028 C47.1687758,18.6156187 46.481245,18.7648514 45.8068217,18.7648514 C45.5977184,18.7648514 45.3923247,18.7514964 45.1908881,18.7276045 C43.6019004,18.5115969 42.2723444,17.4920849 41.6324213,16.0953254 C41.369651,15.5217964 41.2221286,14.8852906 41.2221286,14.2144785 C41.2221286,13.1872476 41.5653994,12.239534 42.1442361,11.4774425 C42.9834936,10.3724096 44.3178723,9.65773436 45.8210422,9.65773436 C48.2636316,9.65773436 50.2604388,11.5447075 50.4099397,13.9275302 C50.4159988,14.0224853 50.4199559,14.1180531 50.4199559,14.2144785 C50.4199559,14.3050228 50.4164935,14.394832 50.4112999,14.4841511 L50.4112999,14.4841511 Z M53.1120843,14.362731 L53.1120843,14.2144785 C53.1120843,11.9653281 52.0746052,9.95632234 50.4480259,8.63136116 C49.1893251,7.60609067 47.5777083,6.99029126 45.8210422,6.99029126 C45.3746418,6.99029126 44.9375156,7.03023368 44.5132498,7.10644284 C41.110714,7.7170963 38.5300002,10.6670769 38.5300002,14.2144785 C38.5300002,17.7033142 41.0262565,20.6145776 44.3455714,21.2905357 C44.822144,21.3875737 45.315534,21.4386657 45.8210422,21.4386657 C47.5862406,21.4386657 49.2047822,20.8171077 50.4660798,19.7827705 C50.2997616,23.8951246 48.4069496,25.4265366 45.5395998,25.4265366 C43.9919134,25.4265366 42.3556889,24.6004882 41.5231089,23.0679734 C41.1654939,23.2450188 39.6187968,24.0998601 39.2611818,24.247255 C40.6011251,26.6643841 42.9805259,27.961165 45.5395998,27.961165 C50.1205832,27.961165 53.1246973,25.4851025 53.1246973,19.0005852 L53.1246973,14.362731 L53.1120843,14.362731 Z" id="Fill-14"></path>
                                                <path d="M89.0538705,16.3339758 C88.5045984,17.4224669 87.5347705,18.2628552 86.3565212,18.6424809 C85.9104697,18.7862299 85.4350857,18.8647732 84.9412606,18.8647732 C84.7771473,18.8647732 84.6152618,18.8558815 84.4557278,18.8390861 C82.6342682,18.6486557 81.1301439,17.3978913 80.5719606,15.7167443 C80.4210903,15.2622802 80.3381673,14.7769421 80.3381673,14.2718447 C80.3381673,14.0264587 80.357846,13.7858891 80.3949757,13.5510003 C80.7417672,11.3569757 82.6447883,9.67891612 84.9412606,9.67891612 C84.9979453,9.67891612 85.0540111,9.68113905 85.1102008,9.68311498 C85.7739561,9.70707314 86.4016957,9.87058145 86.9648295,10.1462238 C87.9455488,10.6260046 88.7297282,11.4435462 89.1656309,12.4470722 C89.4087067,13.0065077 89.5441064,13.6232452 89.5441064,14.2718447 C89.5441064,15.0136833 89.3667502,15.7137804 89.0538705,16.3339758 M92.2033359,13.5548286 C92.0076624,11.5585207 91.0041702,9.79883045 89.5233138,8.60512102 C88.2706813,7.59542019 86.6768268,6.99029126 84.9412606,6.99029126 C84.5526363,6.99029126 84.1713143,7.0209182 83.7991509,7.07933166 C80.3113101,7.62629411 77.6437883,10.6379837 77.6437883,14.2718447 C77.6437883,17.8361775 80.2105648,20.8019267 83.6002594,21.4302728 C84.0349245,21.510792 84.4829563,21.5533981 84.9412606,21.5533981 C86.6768268,21.5533981 88.2706813,20.9482691 89.5233138,19.9385683 L89.5233138,21.2043992 L92.2033359,21.2043992 L92.2033359,14.9887372 C92.2264801,14.7528604 92.2384854,14.5138962 92.2384854,14.2718447 C92.2384854,14.0299166 92.2264801,13.7907054 92.2033359,13.5548286" id="Fill-15"></path>
                                                <path d="M68.2943905,14.5625158 L68.2943905,6.99029126 L65.6449122,6.99029126 L65.6449122,9.87177334 L65.6449122,14.886425 C65.6449122,16.7892699 64.0911003,18.3318387 62.1742642,18.3318387 C60.2575502,18.3318387 58.7037383,16.7892699 58.7037383,14.886425 L58.7037383,9.87189456 L58.7037383,6.99029126 L56.0436367,6.99029126 L56.0436367,14.3426164 C56.0436367,14.4668705 56.0458346,14.5893062 56.0498641,14.7102873 C56.0481546,14.7688382 56.0454683,14.8273891 56.0454683,14.886425 C56.0454683,15.6240698 56.1778323,16.3310452 56.4199705,16.9852883 C56.770784,17.9328922 57.3529903,18.7690918 58.0977211,19.4284262 C59.1809325,20.387304 60.60873,20.9708738 62.1742642,20.9708738 C63.4522363,20.9708738 64.6385061,20.5822313 65.6204908,19.9180479 C67.1554982,18.8797688 68.1909658,17.1677296 68.2943905,15.2102129 C68.3000074,15.1029301 68.3031822,14.9950412 68.3031822,14.886425 C68.3031822,14.7776875 68.3000074,14.6697986 68.2943905,14.5625158" id="Fill-16"></path>
                                                <path d="M134.846009,14.6986679 L134.846009,14.1406782 L134.846009,6.99029126 L132.136121,6.99029126 L132.136121,9.88023205 L132.136121,15.0313946 C132.136121,16.9860396 130.546757,18.5706008 128.586341,18.5706008 C126.625926,18.5706008 125.036686,16.9860396 125.036686,15.0313946 L125.036686,9.88035658 L125.036686,6.99029126 L122.316058,6.99029126 L122.316058,14.4727823 C122.316058,14.6004189 122.318181,14.7261876 122.322303,14.850462 C122.320554,14.9106068 122.317807,14.9707517 122.317807,15.0313946 C122.317807,15.78912 122.453189,16.5153409 122.700848,17.1873941 C123.05966,18.160794 123.655141,19.019757 124.416852,19.6970402 C125.524761,20.6820208 126.985112,21.2814768 128.586341,21.2814768 C129.893452,21.2814768 131.106769,20.8822546 132.111268,20.1999905 C132.116638,20.1962548 132.121634,20.1921455 132.127004,20.1885343 C131.820022,23.9619691 129.952525,25.3850234 127.185188,25.3850234 C125.622051,25.3850234 123.969492,24.5456107 123.1286,22.9879465 C122.767415,23.1680075 121.205152,24.0368078 120.844092,24.186485 C122.197412,26.6432086 124.600441,27.961165 127.185188,27.961165 C131.811904,27.961165 134.846009,25.4446702 134.846009,18.8542653 L134.846009,15.3639968 C134.851754,15.2537935 134.855001,15.1429676 134.855001,15.0313946 C134.855001,14.9196971 134.851754,14.8088712 134.846009,14.6986679" id="Fill-17"></path>
                                                <path d="M102.707994,6.99029126 C102.429083,6.99029126 102.15427,7.00595077 101.883299,7.03465986 C101.763564,7.04721232 101.644342,7.06187757 101.526272,7.07977415 C101.0846,7.14713488 100.655989,7.25227727 100.243257,7.39047862 C99.4093419,7.66986407 98.641889,8.0873266 97.9691991,8.61428138 C96.3418353,9.88916395 95.2707563,11.8058377 95.1660047,13.9685893 C95.1604982,14.08442 95.1574248,14.200872 95.1574248,14.3180697 C95.1574248,14.434646 95.1604982,14.5506009 95.1660047,14.6656859 L95.1660047,20.9708738 L97.9453803,20.9708738 L97.9453803,20.0020973 L97.9453803,14.3180697 C97.9453803,14.0712461 97.9657416,13.8291452 98.004159,13.5927612 C98.1267108,12.8386193 98.4371239,12.1451269 98.8875047,11.5587655 C99.7495926,10.4361281 101.124682,9.70646972 102.676107,9.69652718 C102.686736,9.69652718 102.697237,9.69603005 102.707994,9.69603005 C102.720928,9.69603005 102.733733,9.69677574 102.746667,9.69690002 L102.746667,7.0807684 L102.746667,6.99103695 C102.733733,6.99091267 102.720928,6.99029126 102.707994,6.99029126" id="Fill-18"></path>
                                                <path d="M23.360307,13.3985937 L23.360307,20.9708738 L26.0097853,20.9708738 L26.0097853,18.0892955 L26.0097853,13.0748085 C26.0097853,11.1718589 27.5635972,9.6293035 29.4804333,9.6293035 C31.3971473,9.6293035 32.9509592,11.1718589 32.9509592,13.0748085 L32.9509592,18.0891742 L32.9509592,20.9708738 L35.6110608,20.9708738 L35.6110608,13.6184911 C35.6110608,13.4942381 35.6088629,13.3718035 35.6048333,13.2509447 C35.6065428,13.1921519 35.6092292,13.1338439 35.6092292,13.0748085 C35.6092292,12.3370489 35.4768652,11.6300797 35.2347269,10.9758422 C34.8839135,10.0282465 34.3017071,9.19193298 33.5569764,8.53272543 C32.473765,7.57385603 31.0459675,6.99029126 29.4804333,6.99029126 C28.2024611,6.99029126 27.0161914,7.37893036 26.0342067,8.04310804 C24.4991992,9.08137813 23.4637316,10.7934025 23.360307,12.7509022 C23.3546901,12.8581841 23.3515153,12.966072 23.3515153,13.0748085 C23.3515153,13.1834238 23.3546901,13.2913118 23.360307,13.3985937" id="Fill-19"></path>
                                            </g>
                                            <g id="Logo-icon-">
                                                <path d="M4.58969603,16.1789394 C4.04477554,13.478298 4.38347981,10.7142698 5.69450533,8.17104884 C6.99575815,5.62487393 9.20339746,3.35009243 11.7631012,1.39470592 C12.0848579,1.14903641 12.175781,0.72206871 11.9519987,0.38630397 C11.7022383,0.0110302568 11.1611527,-0.112050659 10.7420402,0.111587365 C7.70743298,1.72936293 4.81483912,3.84733934 2.77853123,6.73223293 C0.707833345,9.58857175 -0.19904796,13.187827 0.036362642,16.6193229 C0.214745242,20.0697733 1.81845678,23.7313075 4.49308243,26.3994556 C7.14692566,29.0879121 10.3580599,30.8532617 13.2772503,32.4816222 C16.2158624,34.0920129 18.9930395,35.5936001 21.0455528,37.4193824 C23.1208277,39.2078712 24.4596869,41.3503407 24.9903813,43.9744258 C25.5878764,46.5860798 25.3076846,49.2587819 24.062099,51.7684018 C22.841873,54.2925452 20.6776541,56.5759423 18.2171618,58.6615485 C17.9434026,58.8931867 17.8565617,59.2731375 18.0407585,59.5873631 C18.2631801,59.964483 18.784844,60.1097185 19.2071729,59.9109428 C22.3455685,58.4315102 25.3231477,56.3646124 27.4768517,53.4750417 C29.660987,50.6043024 30.5829603,46.8910743 30.3104382,43.3835143 C30.1670641,41.6239496 29.6896866,39.8144139 28.8696462,38.1112202 C28.0295656,36.414919 26.8255449,34.8663149 25.4587284,33.5574725 C22.6653459,30.9497571 19.4173476,29.2906263 16.4727977,27.7204831 C13.5062282,26.1717559 10.7194022,24.725309 8.60652087,22.9134348 C6.45343546,21.1457467 5.09898949,18.8772423 4.58969603,16.1789394" id="Fill-20"></path>
                                                <path d="M12.0332901,58.7693318 L12.0275919,58.7646444 C10.3554912,57.2054607 8.79917189,55.6191393 7.56570666,53.8997199 C2.67730964,46.270205 6.95988538,39.3566316 7.98979368,37.5780027 L8.03877343,37.4953561 C8.43170254,36.8135833 8.4158205,35.9380227 7.92505313,35.2574835 C7.254855,34.3281409 5.73854385,34.0784742 4.80404907,34.7444578 C0.965928163,37.8097832 0.61300726,44.1812196 0.583787882,45.4953005 C0.583182958,46.8145624 0.801167082,48.1414721 1.14838985,49.4197807 C1.54119772,50.6889611 2.08167226,51.9016458 2.77332934,53.0020792 C3.49117361,54.0826526 4.28588214,55.0846502 5.18994643,55.9537964 C6.99989359,57.6870314 9.07631966,58.9876669 11.2557972,59.9400764 C11.5254283,60.057632 11.8527682,60.0018764 12.0663878,59.7758934 C12.3365038,59.488974 12.3213492,59.038365 12.0332901,58.7693318" id="Fill-21"></path>
                                                <path d="M18.3236556,1.23072005 L18.3287479,1.23540745 C20.0015461,2.79446402 21.5573443,4.38102827 22.7908769,6.10019682 C27.6801472,13.7304335 23.3973375,20.6433735 22.3673729,22.4219981 L22.3183905,22.5046445 C21.9248337,23.1864157 21.9414441,24.0620975 22.4322383,24.7426351 C23.1023518,25.6718521 24.6181396,25.9215182 25.5534129,25.2555362 C29.3911372,22.1903415 29.7445624,15.8194139 29.773182,14.5053361 C29.7745096,13.1860775 29.5563923,11.8586775 29.2092718,10.5801253 C28.8163212,9.31094794 28.2758172,8.09826615 27.5841223,6.99857557 C26.8662388,5.91738791 26.0708806,4.91489937 25.1673732,4.04624866 C23.3567209,2.31363464 21.2807876,1.01238552 19.1013122,0.0599782264 C18.8316664,-0.0577003845 18.5035812,-0.00182154722 18.2906774,0.224160859 C18.0210316,0.511202921 18.0349746,0.961687499 18.3236556,1.23072005" id="Fill-22"></path>
                                            </g>
                                        </g>
                                    </g>
                                </g>
                            </g>
                        </g>
                    </g>
                </g>
            </g>
        </g>
    </g>
</svg>