<?xml version="1.0" encoding="UTF-8"?>
<svg width="21px" height="21px" viewBox="0 0 21 21" version="1.1" xmlns="http://www.w3.org/2000/svg" xmlns:xlink="http://www.w3.org/1999/xlink">
    <title>Group 3</title>
    <g id="Design" stroke="none" stroke-width="1" fill="none" fill-rule="evenodd">
        <g id="Status-menu" transform="translate(-1034.000000, -291.000000)">
            <g id="Group-3" transform="translate(1034.000000, 291.000000)">
                <rect id="Rectangle-Copy-2" fill="#FFFFFF" x="0" y="0" width="21" height="21"></rect>
                <g id="code-pull-request-cl" transform="translate(2.187499, 1.968750)" fill="#757575" fill-rule="nonzero">
                    <path d="M5.93750057,2.96875 C5.93750057,1.32888663 4.60824248,0 2.96875057,0 C1.32925808,0 0,1.32888663 0,2.96875 C0,4.18556672 0.733652502,5.22834039 1.78125,5.68664026 L1.78125,12.1251168 C0.733652502,12.5837893 0,13.626563 0,14.84375 C0,16.4832419 1.32925808,17.8125 2.96875057,17.8125 C4.60898483,17.8125 5.93750057,16.4839848 5.93750057,14.84375 C5.93750057,13.6269333 5.20384806,12.5841596 4.15625057,12.1254883 L4.15625057,5.6851567 C5.20273483,5.22871071 5.93750057,4.18593705 5.93750057,2.96875 Z M2.96875057,15.734375 C2.47779369,15.734375 2.07812557,15.3347074 2.07812557,14.84375 C2.07812557,14.3527926 2.47779369,13.953125 2.96875057,13.953125 C3.45970744,13.953125 3.85937557,14.3527926 3.85937557,14.84375 C3.85937557,15.3347074 3.4585942,15.734375 2.96875057,15.734375 Z M2.96875057,3.859375 C2.47779313,3.859375 2.078125,3.4585942 2.078125,2.96875 C2.078125,2.4789058 2.47779313,2.078125 2.96875057,2.078125 C3.45970744,2.078125 3.85937557,2.47779369 3.85937557,2.96875 C3.85937557,3.45970631 3.4585942,3.859375 2.96875057,3.859375 Z M15.3373048,3.5625 L16.2791409,2.62066388 C16.7430081,2.15679669 16.7430081,1.40533185 16.2791409,0.941464663 C15.8152737,0.477597475 15.0638089,0.477597475 14.5999417,0.941464663 L13.6562506,1.88330078 L12.7144144,0.941464663 C12.2505473,0.477597475 11.4990824,0.477597475 11.0352152,0.941464663 C10.571348,1.40533185 10.571348,2.15679669 11.0352152,2.62066388 L11.9789064,3.5625 L11.0370702,4.50433612 C10.5732031,4.96820331 10.5732031,5.71966815 11.0370702,6.18353534 C11.266407,6.41621071 11.5707032,6.53125 11.8750006,6.53125 C12.1792979,6.53125 12.4828523,6.4152832 12.7144144,6.18334961 L13.6562506,5.24355423 L14.5980867,6.18539035 C14.828907,6.41621071 15.1332032,6.53125 15.4375006,6.53125 C15.7417979,6.53125 16.0453523,6.4152832 16.2769144,6.18334961 C16.7407816,5.71948242 16.7407816,4.96801758 16.2769144,4.50415039 L15.3373048,3.5625 Z M14.8437506,12.1273433 L14.8437506,8.90625 C14.8437506,8.25052741 14.3119737,7.71875 13.6562506,7.71875 C13.0005274,7.71875 12.4687506,8.25052741 12.4687506,8.90625 L12.4687506,12.1254883 C11.1766019,12.6910348 10.3620518,14.1453513 10.812559,15.7187897 C11.0860923,16.6743561 11.8761138,17.4454889 12.8357617,17.7026566 C14.828907,18.2355466 16.6250006,16.7511716 16.6250006,14.84375 C16.6250006,13.626563 15.8902354,12.5837893 14.8437506,12.1273433 Z M13.6562506,15.734375 C13.1652931,15.734375 12.7656256,15.3347074 12.7656256,14.84375 C12.7656256,14.3527926 13.1652931,13.953125 13.6562506,13.953125 C14.147208,13.953125 14.5468756,14.3527926 14.5468756,14.84375 C14.5468756,15.3347074 14.1460948,15.734375 13.6562506,15.734375 Z" id="Shape"></path>
                </g>
            </g>
        </g>
    </g>
</svg>