<?xml version="1.0" encoding="UTF-8"?>
<svg width="100px" height="100px" viewBox="0 0 100 100" version="1.1" xmlns="http://www.w3.org/2000/svg" xmlns:xlink="http://www.w3.org/1999/xlink">
    <title>86F080F4-72D8-48CF-8662-C26D0B1DB83A@SVG</title>
    <defs>
        <polygon id="path-1" points="3.21285141e-05 0.0751807229 53.1861847 0.0751807229 53.1861847 39.1967871 3.21285141e-05 39.1967871"></polygon>
    </defs>
    <g id="AI-Request-Workflow" stroke="none" stroke-width="1" fill="none" fill-rule="evenodd">
        <g id="RFAI-:-Sunseting" transform="translate(-316.000000, -674.000000)">
            <g id="1" transform="translate(278.000000, 642.000000)">
                <g id="Icon" transform="translate(38.000000, 32.000000)">
                    <circle id="Oval" fill="#FFFFFF" cx="50" cy="50" r="50"></circle>
                    <circle id="Oval" stroke="#532488" stroke-width="2" fill="#FFFFFF" cx="50" cy="50" r="45.6666667"></circle>
                    <g id="Group-16" transform="translate(23.333333, 30.000000)">
                        <g id="Group-3" transform="translate(0.000000, 0.246104)">
                            <mask id="mask-2" fill="white">
                                <use xlink:href="#path-1"></use>
                            </mask>
                            <g id="Clip-2"></g>
                            <path d="M2.23392771,3.64176707 C2.23392771,2.90698795 2.83151807,2.30939759 3.56629719,2.30939759 L49.6199518,2.30939759 C50.3547309,2.30939759 50.9523213,2.90698795 50.9523213,3.64176707 L50.9523213,35.6298795 C50.9523213,36.3649799 50.3547309,36.9628916 49.6199518,36.9628916 L3.56629719,36.9628916 C2.83151807,36.9628916 2.23392771,36.3649799 2.23392771,35.6298795 L2.23392771,3.64176707 Z M49.6199518,0.0751807229 L3.56629719,0.0751807229 C1.59971084,0.0751807229 3.21285141e-05,1.67518072 3.21285141e-05,3.64176707 L3.21285141e-05,35.6298795 C3.21285141e-05,37.5967871 1.59971084,39.1967871 3.56629719,39.1967871 L49.6199518,39.1967871 C51.5865382,39.1967871 53.1862169,37.5967871 53.1862169,35.6298795 L53.1862169,3.64176707 C53.1862169,1.67518072 51.5865382,0.0751807229 49.6199518,0.0751807229 L49.6199518,0.0751807229 Z" id="Fill-1" fill="#220D3A" mask="url(#mask-2)"></path>
                        </g>
                        <path d="M48.5289639,7.59848996 L4.59193574,7.59848996 C3.97603213,7.59848996 3.47482731,8.09969478 3.47482731,8.71559839 C3.47482731,9.33150201 3.97603213,9.83238554 4.59193574,9.83238554 L48.5289639,9.83238554 C49.1448675,9.83238554 49.6460723,9.33150201 49.6460723,8.71559839 C49.6460723,8.09969478 49.1448675,7.59848996 48.5289639,7.59848996" id="Fill-4" fill="#220D3A"></path>
                        <path d="M5.94959036,6.1522249 C6.51248193,6.1522249 6.96870683,5.696 6.96870683,5.13310843 C6.96870683,4.57021687 6.51248193,4.11399197 5.94959036,4.11399197 C5.3866988,4.11399197 4.9304739,4.57021687 4.9304739,5.13310843 C4.9304739,5.696 5.3866988,6.1522249 5.94959036,6.1522249" id="Fill-6" fill="#220D3A"></path>
                        <path d="M9.72453012,6.1522249 C10.2874217,6.1522249 10.7436466,5.696 10.7436466,5.13310843 C10.7436466,4.57021687 10.2874217,4.11399197 9.72453012,4.11399197 C9.16163855,4.11399197 8.70541365,4.57021687 8.70541365,5.13310843 C8.70541365,5.696 9.16163855,6.1522249 9.72453012,6.1522249" id="Fill-8" fill="#220D3A"></path>
                        <path d="M13.4993092,6.1522249 C14.0622008,6.1522249 14.5184257,5.696 14.5184257,5.13310843 C14.5184257,4.57021687 14.0622008,4.11399197 13.4993092,4.11399197 C12.9364177,4.11399197 12.4801928,4.57021687 12.4801928,5.13310843 C12.4801928,5.696 12.9364177,6.1522249 13.4993092,6.1522249" id="Fill-10" fill="#220D3A"></path>
                        <path d="M41.6360803,28.8561606 C41.6360803,30.4956787 40.3024257,31.8293333 38.6629076,31.8293333 C37.0237108,31.8293333 35.6897349,30.4956787 35.6897349,28.8561606 C35.6897349,27.2166426 37.0237108,25.882988 38.6629076,25.882988 C40.3024257,25.882988 41.6360803,27.2166426 41.6360803,28.8561606 M38.6629076,23.6490924 C35.7919036,23.6490924 33.4558394,25.9848353 33.4558394,28.8561606 C33.4558394,31.7274859 35.7919036,34.0632289 38.6629076,34.0632289 C41.5342329,34.0632289 43.8699759,31.7274859 43.8699759,28.8561606 C43.8699759,25.9848353 41.5342329,23.6490924 38.6629076,23.6490924" id="Fill-12" fill="#4086FF"></path>
                        <path d="M49.8391968,16.0623293 C49.2046586,15.4277912 48.3609639,15.0782329 47.4636145,15.0782329 C46.5662651,15.0782329 45.7225703,15.4277912 45.0880321,16.0623293 C44.7497189,16.4003213 44.30249,16.4896386 43.8613655,16.306506 C43.4195984,16.1233735 43.1661044,15.744257 43.1661044,15.2661847 C43.1661044,13.4136546 41.6589558,11.906506 39.8064257,11.906506 L37.5191968,11.906506 C35.666988,11.906506 34.1595181,13.4136546 34.1595181,15.2661847 C34.1595181,15.744257 33.9063454,16.1233735 33.4645783,16.306506 C33.0231325,16.4896386 32.5759036,16.4003213 32.2375904,16.0623293 C31.6030522,15.4277912 30.7593574,15.0782329 29.862008,15.0782329 C28.9643373,15.0782329 28.1206426,15.4277912 27.486747,16.0623293 L25.8690763,17.68 C25.2351807,18.3135743 24.8862651,19.1572691 24.8862651,20.0555823 C24.8862651,20.9538956 25.235502,21.7975904 25.8690763,22.4311647 C26.2070683,22.7691566 26.2960643,23.2163855 26.1129317,23.6581526 C25.9301205,24.0995984 25.551004,24.3527711 25.0729317,24.3527711 C23.2204016,24.3527711 21.713253,25.860241 21.713253,27.7124498 L21.713253,30 C21.713253,31.8525301 23.2204016,33.3593574 25.0729317,33.3593574 C25.551004,33.3593574 25.9301205,33.6125301 26.1129317,34.0542972 C26.2960643,34.4960643 26.2070683,34.9432932 25.8690763,35.2816064 C25.657992,35.4923695 25.542008,35.7728514 25.542008,36.0713253 C25.542008,36.3697992 25.657992,36.6502811 25.8690763,36.8610442 C26.0801606,37.0721285 26.3606426,37.1881124 26.6587952,37.1881124 C26.9569478,37.1881124 27.237751,37.0721285 27.4488353,36.8610442 C28.4274699,35.8820884 28.706988,34.4793574 28.1768675,33.1996787 C27.6473896,31.9206426 26.457992,31.1257831 25.0729317,31.1257831 C24.4522088,31.1257831 23.9471486,30.6207229 23.9471486,30 L23.9471486,27.7124498 C23.9471486,27.0920482 24.4522088,26.5866667 25.0729317,26.5866667 C26.457992,26.5866667 27.6473896,25.7921285 28.1768675,24.5127711 C28.706988,23.2334137 28.4274699,21.8306827 27.4485141,20.8517269 C27.0096386,20.4128514 27.0096386,19.6983133 27.4485141,19.2594378 L29.0661847,17.6420884 C29.4915663,17.2167068 30.2327711,17.2167068 30.6581526,17.6420884 C31.6374297,18.6213655 33.0404819,18.900241 34.3195181,18.3704418 C35.5988755,17.8403213 36.3930924,16.651245 36.3930924,15.2661847 C36.3930924,14.6454618 36.8984739,14.1407229 37.5191968,14.1407229 L39.8064257,14.1407229 C40.4271486,14.1407229 40.9322088,14.6454618 40.9322088,15.2661847 C40.9322088,16.6509237 41.7270683,17.8403213 43.0061044,18.3704418 C44.284498,18.8995984 45.6881928,18.6213655 46.6677912,17.6420884 C47.0918876,17.2176707 47.8356627,17.2176707 48.259759,17.6420884 C48.6812851,18.0639357 49.4176707,18.0639357 49.8391968,17.6420884 C50.0502811,17.4313253 50.1665863,17.1505221 50.1665863,16.8520482 C50.1665863,16.5538956 50.0502811,16.2734137 49.8391968,16.0623293" id="Fill-14" fill="#4086FF"></path>
                    </g>
                </g>
            </g>
        </g>
    </g>
</svg>