<?xml version="1.0" encoding="UTF-8"?>
<svg width="120px" height="120px" viewBox="0 0 120 120" version="1.1" xmlns="http://www.w3.org/2000/svg" xmlns:xlink="http://www.w3.org/1999/xlink">
    <title>81DA7243-44D5-4452-B768-434C6BB9A126@SVG</title>
    <defs>
        <polygon id="path-1" points="3.85542169e-05 0.0902168675 63.8234217 0.0902168675 63.8234217 47.0361446 3.85542169e-05 47.0361446"></polygon>
    </defs>
    <g id="AI-Request-Workflow" stroke="none" stroke-width="1" fill="none" fill-rule="evenodd">
        <g id="DAPP---AI-Service-Page-:-AI-Request" transform="translate(-60.000000, -1394.000000)">
            <g id="Icon" transform="translate(60.000000, 1394.000000)">
                <circle id="Oval" stroke="#532488" stroke-width="2" fill="#FFFFFF" cx="60" cy="60" r="59"></circle>
                <circle id="Oval" stroke="#532488" stroke-width="2" fill="#FFFFFF" cx="60" cy="60" r="55"></circle>
                <g id="Group-16" transform="translate(28.000000, 36.000000)">
                    <g id="Group-3" transform="translate(0.000000, 0.295325)">
                        <mask id="mask-2" fill="white">
                            <use xlink:href="#path-1"></use>
                        </mask>
                        <g id="Clip-2"></g>
                        <path d="M2.68071325,4.37012048 C2.68071325,3.48838554 3.39782169,2.77127711 4.27955663,2.77127711 L59.5439422,2.77127711 C60.4256771,2.77127711 61.1427855,3.48838554 61.1427855,4.37012048 L61.1427855,42.7558554 C61.1427855,43.6379759 60.4256771,44.3554699 59.5439422,44.3554699 L4.27955663,44.3554699 C3.39782169,44.3554699 2.68071325,43.6379759 2.68071325,42.7558554 L2.68071325,4.37012048 Z M59.5439422,0.0902168675 L4.27955663,0.0902168675 C1.91965301,0.0902168675 3.85542169e-05,2.01021687 3.85542169e-05,4.37012048 L3.85542169e-05,42.7558554 C3.85542169e-05,45.1161446 1.91965301,47.0361446 4.27955663,47.0361446 L59.5439422,47.0361446 C61.9038458,47.0361446 63.8234602,45.1161446 63.8234602,42.7558554 L63.8234602,4.37012048 C63.8234602,2.01021687 61.9038458,0.0902168675 59.5439422,0.0902168675 L59.5439422,0.0902168675 Z" id="Fill-1" fill="#220D3A" mask="url(#mask-2)"></path>
                    </g>
                    <path d="M58.2347566,9.11818795 L5.51032289,9.11818795 C4.77123855,9.11818795 4.16979277,9.71963373 4.16979277,10.4587181 C4.16979277,11.1978024 4.77123855,11.7988627 5.51032289,11.7988627 L58.2347566,11.7988627 C58.973841,11.7988627 59.5752867,11.1978024 59.5752867,10.4587181 C59.5752867,9.71963373 58.973841,9.11818795 58.2347566,9.11818795" id="Fill-4" fill="#220D3A"></path>
                    <path d="M7.13950843,7.38266988 C7.81497831,7.38266988 8.36244819,6.8352 8.36244819,6.15973012 C8.36244819,5.48426024 7.81497831,4.93679036 7.13950843,4.93679036 C6.46403855,4.93679036 5.91656867,5.48426024 5.91656867,6.15973012 C5.91656867,6.8352 6.46403855,7.38266988 7.13950843,7.38266988" id="Fill-6" fill="#220D3A"></path>
                    <path d="M11.6694361,7.38266988 C12.344906,7.38266988 12.8923759,6.8352 12.8923759,6.15973012 C12.8923759,5.48426024 12.344906,4.93679036 11.6694361,4.93679036 C10.9939663,4.93679036 10.4464964,5.48426024 10.4464964,6.15973012 C10.4464964,6.8352 10.9939663,7.38266988 11.6694361,7.38266988" id="Fill-8" fill="#220D3A"></path>
                    <path d="M16.1991711,7.38266988 C16.874641,7.38266988 17.4221108,6.8352 17.4221108,6.15973012 C17.4221108,5.48426024 16.874641,4.93679036 16.1991711,4.93679036 C15.5237012,4.93679036 14.9762313,5.48426024 14.9762313,6.15973012 C14.9762313,6.8352 15.5237012,7.38266988 16.1991711,7.38266988" id="Fill-10" fill="#220D3A"></path>
                    <path d="M49.9632964,34.6273928 C49.9632964,36.5948145 48.3629108,38.1952 46.3954892,38.1952 C44.428453,38.1952 42.8276819,36.5948145 42.8276819,34.6273928 C42.8276819,32.6599711 44.428453,31.0595855 46.3954892,31.0595855 C48.3629108,31.0595855 49.9632964,32.6599711 49.9632964,34.6273928 M46.3954892,28.3789108 C42.9502843,28.3789108 40.1470072,31.1818024 40.1470072,34.6273928 C40.1470072,38.0729831 42.9502843,40.8758747 46.3954892,40.8758747 C49.8410795,40.8758747 52.6439711,38.0729831 52.6439711,34.6273928 C52.6439711,31.1818024 49.8410795,28.3789108 46.3954892,28.3789108" id="Fill-12" fill="#4086FF"></path>
                    <path d="M59.8070361,19.2747952 C59.0455904,18.5133494 58.0331566,18.0938795 56.9563373,18.0938795 C55.8795181,18.0938795 54.8670843,18.5133494 54.1056386,19.2747952 C53.6996627,19.6803855 53.162988,19.7875663 52.6336386,19.5678072 C52.1035181,19.3480482 51.7993253,18.8931084 51.7993253,18.3194217 C51.7993253,16.0963855 49.990747,14.2878072 47.7677108,14.2878072 L45.0230361,14.2878072 C42.8003855,14.2878072 40.9914217,16.0963855 40.9914217,18.3194217 C40.9914217,18.8931084 40.6876145,19.3480482 40.157494,19.5678072 C39.627759,19.7875663 39.0910843,19.6803855 38.6851084,19.2747952 C37.9236627,18.5133494 36.9112289,18.0938795 35.8344096,18.0938795 C34.7572048,18.0938795 33.7447711,18.5133494 32.9840964,19.2747952 L31.0428916,21.216 C30.2822169,21.9762892 29.8635181,22.9887229 29.8635181,24.0666988 C29.8635181,25.1446747 30.2826024,26.1571084 31.0428916,26.9173976 C31.4484819,27.322988 31.5552771,27.8596627 31.3355181,28.3897831 C31.1161446,28.9195181 30.6612048,29.2233253 30.0875181,29.2233253 C27.8644819,29.2233253 26.0559036,31.0322892 26.0559036,33.2549398 L26.0559036,36 C26.0559036,38.2230361 27.8644819,40.0312289 30.0875181,40.0312289 C30.6612048,40.0312289 31.1161446,40.3350361 31.3355181,40.8651566 C31.5552771,41.3952771 31.4484819,41.9319518 31.0428916,42.3379277 C30.7895904,42.5908434 30.6504096,42.9274217 30.6504096,43.2855904 C30.6504096,43.643759 30.7895904,43.9803373 31.0428916,44.233253 C31.2961928,44.4865542 31.6327711,44.6257349 31.9905542,44.6257349 C32.3483373,44.6257349 32.6853012,44.4865542 32.9386024,44.233253 C34.1129639,43.058506 34.4483855,41.3752289 33.812241,39.8396145 C33.1768675,38.3047711 31.7495904,37.3509398 30.0875181,37.3509398 C29.3426506,37.3509398 28.7365783,36.7448675 28.7365783,36 L28.7365783,33.2549398 C28.7365783,32.5104578 29.3426506,31.904 30.0875181,31.904 C31.7495904,31.904 33.1768675,30.9505542 33.812241,29.4153253 C34.4483855,27.8800964 34.1129639,26.1968193 32.9382169,25.0220723 C32.4115663,24.4954217 32.4115663,23.6379759 32.9382169,23.1113253 L34.8794217,21.170506 C35.3898795,20.6600482 36.2793253,20.6600482 36.7897831,21.170506 C37.9649157,22.3456386 39.6485783,22.6802892 41.1834217,22.0445301 C42.7186506,21.4083855 43.6717108,19.981494 43.6717108,18.3194217 C43.6717108,17.5745542 44.2781687,16.9688675 45.0230361,16.9688675 L47.7677108,16.9688675 C48.5125783,16.9688675 49.1186506,17.5745542 49.1186506,18.3194217 C49.1186506,19.9811084 50.0724819,21.4083855 51.6073253,22.0445301 C53.1413976,22.6795181 54.8258313,22.3456386 56.0013494,21.170506 C56.5102651,20.6612048 57.4027952,20.6612048 57.9117108,21.170506 C58.4175422,21.6767229 59.3012048,21.6767229 59.8070361,21.170506 C60.0603373,20.9175904 60.1999036,20.5806265 60.1999036,20.2224578 C60.1999036,19.8646747 60.0603373,19.5280964 59.8070361,19.2747952" id="Fill-14" fill="#4086FF"></path>
                </g>
            </g>
        </g>
    </g>
</svg>