<?xml version="1.0" encoding="UTF-8"?>
<svg width="100px" height="100px" viewBox="0 0 100 100" version="1.1" xmlns="http://www.w3.org/2000/svg" xmlns:xlink="http://www.w3.org/1999/xlink">
    <title>DF96EEA6-3237-411B-9024-2166B628CFA4@SVG</title>
    <defs>
        <polygon id="path-1" points="0 0 53.3333333 0 53.3333333 47.8536398 0 47.8536398"></polygon>
    </defs>
    <g id="AI-Request-Workflow" stroke="none" stroke-width="1" fill="none" fill-rule="evenodd">
        <g id="DAPP---Marketplace-Home-:-Card-view-:-AI-Request" transform="translate(-745.000000, -2116.000000)">
            <g id="New-Module" transform="translate(60.000000, 2079.000000)">
                <g id="2" transform="translate(655.000000, 0.000000)">
                    <g id="Icon" transform="translate(30.000000, 37.000000)">
                        <circle id="Oval" fill="#FFFFFF" cx="50" cy="50" r="50"></circle>
                        <circle id="Oval" stroke="#462EB6" stroke-width="2" fill="#FFFFFF" cx="50" cy="50" r="45.6666667"></circle>
                        <g id="Group-16" transform="translate(23.333333, 25.833333)">
                            <mask id="mask-2" fill="white">
                                <use xlink:href="#path-1"></use>
                            </mask>
                            <g id="Clip-2"></g>
                            <path d="M4.3500703,45.6786046 L23.9260236,45.6786046 L23.9260236,41.3285343 L4.3500703,41.3285343 L4.3500703,45.6786046 Z M24.0209366,47.8536398 L4.25579436,47.8536398 C3.10855807,47.8536398 2.17503515,46.9201169 2.17503515,45.7731991 L2.17503515,41.2336214 C2.17503515,40.0867036 3.10855807,39.1531807 4.25579436,39.1531807 L24.0209366,39.1531807 C25.1678544,39.1531807 26.1013773,40.0867036 26.1013773,41.2336214 L26.1013773,45.7731991 C26.1013773,46.9201169 25.1678544,47.8536398 24.0209366,47.8536398 L24.0209366,47.8536398 Z" id="Fill-1" fill="#220D3A" mask="url(#mask-2)"></path>
                            <path d="M4.35022955,41.3283114 L2.08059996,41.3283114 C0.93368217,41.3283114 0.000159249901,40.3947885 0.000159249901,39.2478707 L0.000159249901,34.708293 C0.000159249901,33.5613752 0.93368217,32.6278523 2.08059996,32.6278523 L4.35022955,32.6278523 C4.95092018,32.6278523 5.43790637,33.1142015 5.43790637,33.7155291 C5.43790637,34.3165382 4.95092018,34.8028874 4.35022955,34.8028874 L2.1751944,34.8028874 L2.1751944,39.1532762 L4.35022955,39.1532762 C4.95092018,39.1532762 5.43790637,39.6396254 5.43790637,40.2406346 C5.43790637,40.8419622 4.95092018,41.3283114 4.35022955,41.3283114" id="Fill-3" fill="#220D3A" mask="url(#mask-2)"></path>
                            <path d="M21.8456785,41.3283751 C21.2449879,41.3283751 20.7580017,40.8417074 20.7580017,40.2406983 C20.7580017,39.6715391 21.1946649,39.2052554 21.751084,39.1574804 L21.751084,34.7988106 C21.1946649,34.7510357 20.7580017,34.284752 20.7580017,33.7152743 C20.7580017,33.1142652 21.2449879,32.627916 21.8456785,32.627916 C22.9925963,32.627916 23.9261192,33.5614389 23.9261192,34.7083567 L23.9261192,39.2476159 C23.9261192,40.3948522 22.9925963,41.3283751 21.8456785,41.3283751 L21.8456785,41.3283751 Z" id="Fill-4" fill="#220D3A" mask="url(#mask-2)"></path>
                            <path d="M24.0206499,34.8028237 L4.25582621,34.8028237 C3.10858992,34.8028237 2.175067,33.8693008 2.175067,32.722383 L2.175067,28.1831239 C2.175067,27.0358876 3.10858992,26.1023646 4.25582621,26.1023646 C4.85619833,26.1023646 5.34318453,26.5890323 5.34318453,27.1900415 C5.34318453,27.7592006 4.9068398,28.2254843 4.35010215,28.2732593 L4.35010215,32.6277886 L23.926374,32.6277886 L23.926374,28.2977838 L21.7510203,28.2777183 C21.1506482,28.2777183 20.663662,27.7910506 20.663662,27.1900415 C20.663662,26.5890323 21.1506482,26.1023646 21.7510203,26.1023646 L23.926374,26.1023646 C25.1051418,26.1023646 26.1014091,27.0553161 26.1014091,28.1831239 L26.1014091,32.722383 C26.1014091,33.8693008 25.1678862,34.8028237 24.0206499,34.8028237 L24.0206499,34.8028237 Z" id="Fill-5" fill="#220D3A" mask="url(#mask-2)"></path>
                            <path d="M2.17503515,26.1023328 L21.7509885,26.1023328 L21.7509885,21.7522625 L2.17503515,21.7522625 L2.17503515,26.1023328 Z M21.8455829,28.2776864 L2.08044071,28.2776864 C0.93352292,28.2776864 0,27.3441635 0,26.1969272 L0,21.6576681 C0,20.5107503 0.93352292,19.5772273 2.08044071,19.5772273 L21.8455829,19.5772273 C22.9928192,19.5772273 23.9263421,20.5107503 23.9263421,21.6576681 L23.9263421,26.1969272 C23.9263421,27.3441635 22.9928192,28.2776864 21.8455829,28.2776864 L21.8455829,28.2776864 Z" id="Fill-6" fill="#220D3A" mask="url(#mask-2)"></path>
                            <path d="M24.0206499,21.7521351 L4.25582621,21.7521351 C3.10858992,21.7521351 2.175067,20.8186122 2.175067,19.6716944 L2.175067,15.1324352 C2.175067,13.9851989 3.10858992,13.051676 4.25582621,13.051676 C4.85619833,13.051676 5.34318453,13.5383437 5.34318453,14.1393528 C5.34318453,14.708512 4.9068398,15.1747957 4.35010215,15.2225706 L4.35010215,19.5770999 L23.926374,19.5770999 L23.926374,15.2470951 L21.7510203,15.2270296 C21.1506482,15.2270296 20.663662,14.7403619 20.663662,14.1393528 C20.663662,13.5383437 21.1506482,13.051676 21.7510203,13.051676 L23.926374,13.051676 C25.1051418,13.051676 26.1014091,14.0046274 26.1014091,15.1324352 L26.1014091,19.6716944 C26.1014091,20.8186122 25.1678862,21.7521351 24.0206499,21.7521351 L24.0206499,21.7521351 Z" id="Fill-7" fill="#220D3A" mask="url(#mask-2)"></path>
                            <path d="M2.17503515,13.0518034 L21.7509885,13.0518034 L21.7509885,8.7014146 L2.17503515,8.7014146 L2.17503515,13.0518034 Z M21.8455829,15.2268385 L2.08044071,15.2268385 C0.93352292,15.2268385 0,14.2933156 0,13.1463978 L0,8.60713866 C0,7.45990237 0.93352292,6.52637945 2.08044071,6.52637945 L21.8455829,6.52637945 C22.9928192,6.52637945 23.9263421,7.45990237 23.9263421,8.60713866 L23.9263421,13.1463978 C23.9263421,14.2933156 22.9928192,15.2268385 21.8455829,15.2268385 L21.8455829,15.2268385 Z" id="Fill-8" fill="#220D3A" mask="url(#mask-2)"></path>
                            <path d="M23.9262466,6.52536025 L4.35029325,6.52536025 L4.35029325,2.17528995 L23.9262466,2.19535544 L23.9262466,6.52536025 Z M23.9262466,-6.36999604e-05 L4.13116538,-6.36999604e-05 C4.03561544,-6.36999604e-05 3.9445245,0.01617979 3.85598156,0.0394302755 C2.89952665,0.226389659 2.1752581,1.07041414 2.1752581,2.08069551 L2.1752581,6.61995469 C2.1752581,7.76687248 3.10878102,8.7003954 4.25569881,8.7003954 L24.020841,8.7003954 C25.1677588,8.7003954 26.1012817,7.76687248 26.1012817,6.61995469 L26.1012817,2.08069551 C26.1012817,0.952569209 25.1050144,-6.36999604e-05 23.9262466,-6.36999604e-05 L23.9262466,-6.36999604e-05 Z" id="Fill-9" fill="#220D3A" mask="url(#mask-2)"></path>
                            <path d="M49.0776982,47.8066929 L29.312556,47.8066929 C28.1656382,47.8066929 27.2321153,46.87317 27.2321153,45.7259337 L27.2321153,41.1866745 C27.2321153,40.0397567 28.1656382,39.1062338 29.312556,39.1062338 L31.5821856,39.1062338 C32.1835132,39.1062338 32.6698624,39.592583 32.6698624,40.1935921 C32.6698624,40.7949198 32.1835132,41.281269 31.5821856,41.281269 L29.4071504,41.281269 L29.4071504,45.6316578 L48.9831038,45.6316578 L48.9831038,41.2771285 C48.4266846,41.2293535 47.9900214,40.7630698 47.9900214,40.1935921 C47.9900214,39.592583 48.4766891,39.1062338 49.0776982,39.1062338 C50.224616,39.1062338 51.1581389,40.0397567 51.1581389,41.1866745 L51.1581389,45.7259337 C51.1581389,46.87317 50.224616,47.8066929 49.0776982,47.8066929 L49.0776982,47.8066929 Z" id="Fill-10" fill="#220D3A" mask="url(#mask-2)"></path>
                            <path d="M51.1582982,39.1061383 L31.5823448,39.1061383 L31.5823448,34.756068 L51.1582982,34.7761335 L51.1582982,39.1061383 Z M51.1582982,32.5807143 L31.4657739,32.5807143 C31.4581299,32.5807143 31.4508044,32.5829438 31.4434789,32.5829438 C30.3169451,32.6071498 29.4069912,33.5292067 29.4069912,34.6614735 L29.4069912,39.2007327 C29.4069912,40.3476505 30.3408326,41.2811734 31.4877504,41.2811734 L51.2528926,41.2811734 C52.3998104,41.2811734 53.3333333,40.3476505 53.3333333,39.2007327 L53.3333333,34.6614735 C53.3333333,33.5333472 52.337066,32.5807143 51.1582982,32.5807143 L51.1582982,32.5807143 Z" id="Fill-11" fill="#220D3A" mask="url(#mask-2)"></path>
                            <path d="M39.2369143,11.0095827 C33.8396166,11.0095827 29.4487784,15.4007394 29.4487784,20.7977186 C29.4487784,26.1943792 33.8396166,30.585536 39.2369143,30.585536 C44.6342119,30.585536 49.0250502,26.1943792 49.0250502,20.7977186 C49.0250502,15.4007394 44.6342119,11.0095827 39.2369143,11.0095827 M39.2369143,32.7608897 C32.6404649,32.7608897 27.2737432,27.394168 27.2737432,20.7977186 C27.2737432,14.2009507 32.6404649,8.83454751 39.2369143,8.83454751 C45.8333637,8.83454751 51.2000854,14.2009507 51.2000854,20.7977186 C51.2000854,27.394168 45.8333637,32.7608897 39.2369143,32.7608897" id="Fill-12" fill="#220D3A" mask="url(#mask-2)"></path>
                            <path d="M43.5633519,24.3054843 C43.469713,23.3477554 42.9750828,22.3690055 42.2406222,21.6880529 C41.5204942,21.0102854 40.6646852,20.5717111 39.9098407,20.1853709 L39.7996397,20.1293149 C39.0572167,19.7560331 38.3555616,19.4034539 37.8335405,18.9718866 C37.2949573,18.5406379 36.9579845,18.0284902 36.8025566,17.4020011 C36.6261077,16.7592685 36.6735642,16.0983814 36.9401485,15.4887728 C37.1790234,14.9282131 37.6300191,14.344403 38.3192527,13.7035814 C38.4546151,13.577774 38.4820061,13.3755266 38.3835896,13.2223282 C38.3065127,13.1019353 38.1676468,13.0325023 38.0160408,13.0361744 C37.9513854,13.0391908 37.8899149,13.0554343 37.834496,13.0847363 C36.911165,13.569493 36.1970885,14.1797386 35.7136058,14.8979556 C35.1829851,15.6684067 34.9492062,16.6821915 35.0721472,17.6800514 C35.1342546,18.1676746 35.291275,18.6594383 35.5279204,19.103427 C35.7613807,19.5311723 36.0977165,19.947133 36.5025298,20.3070378 C37.2277538,20.9360749 38.0577643,21.3408881 38.7899954,21.6979264 L38.9562523,21.7788254 C39.7165113,22.1422337 40.4344098,22.4852579 40.98,22.9200102 C41.5211312,23.3327859 41.8733919,23.8729616 42.0272274,24.5287527 C42.1928473,25.1991948 42.1313768,25.8807843 41.849186,26.4999479 C41.5816461,27.0914021 41.0997559,27.6815822 40.4172109,28.2542449 C40.259872,28.3854668 40.2302515,28.6080981 40.3487334,28.772444 C40.4289953,28.883282 40.5586248,28.9434784 40.6911207,28.9434784 C40.7662866,28.9434784 40.8424081,28.9237314 40.9108855,28.883282 C41.828802,28.3415138 42.4944666,27.7334977 42.9451438,27.0261096 C43.447418,26.2588436 43.6729158,25.2673537 43.5633519,24.3054843" id="Fill-13" fill="#4086FF" mask="url(#mask-2)"></path>
                            <path d="M39.7702104,13.6321419 C40.0912582,13.9563747 40.5002119,14.3892159 40.8075642,14.8542256 C41.5200483,16.0642064 41.4738658,17.3955355 40.6699723,18.8115857 L40.6355743,18.8721006 C40.5008489,19.1116125 40.5113594,19.4138688 40.6626468,19.6419147 C40.7677517,19.7998906 40.9422896,19.911047 41.141989,19.9464005 C41.1862605,19.9540445 41.2305319,19.9578665 41.2744849,19.9578665 C41.4254538,19.9578665 41.5716452,19.9120025 41.6933122,19.8221855 C42.7023195,18.9905826 42.810291,17.2741871 42.8214385,16.9346663 C42.8258975,16.604382 42.7825815,16.2495733 42.6908535,15.874062 C42.5933926,15.5233937 42.4586672,15.1985239 42.2882698,14.9039116 C42.0965329,14.5901893 41.9000185,14.329975 41.6872607,14.1082991 C41.2642929,13.6697249 40.7553302,13.3072721 40.1747051,13.0308143 C40.1288411,13.0094748 40.0794737,12.9976903 40.0266027,12.9970533 C39.9374228,12.9983273 39.8281773,13.0387768 39.7584259,13.1145797 C39.6265669,13.2594971 39.6287964,13.480536 39.7705289,13.6318234 L39.7702104,13.6321419 Z" id="Fill-14" fill="#4086FF" mask="url(#mask-2)"></path>
                            <path d="M38.6618947,28.3389977 C38.3411654,28.0096689 37.9331672,27.5695021 37.6245409,27.0943004 C36.9107828,25.8604322 36.9572838,24.502986 37.7624513,23.0592264 L37.7971678,22.9974375 C37.9309377,22.7556961 37.9204272,22.4505733 37.7704138,22.2199795 C37.6426954,22.0241021 37.410509,21.9005242 37.1643087,21.8979762 C37.0015553,21.8954282 36.8636449,21.9419291 36.7375189,22.0368421 C35.7291486,22.8834145 35.6214956,24.628475 35.6103481,24.9730917 C35.6055706,25.307835 35.6485681,25.6683768 35.7399776,26.0515321 C35.8380755,26.4088889 35.9724824,26.7391731 36.1419243,27.037926 C36.3333427,27.3567443 36.5295386,27.6214176 36.7426149,27.8475525 C37.1665382,28.2940892 37.6751824,28.662912 38.254852,28.9438288 C38.303901,28.9673978 38.3561349,28.9788638 38.4080504,28.9788638 C38.5061483,28.9788638 38.6026538,28.9374588 38.6730422,28.8587893 C38.8061752,28.7103684 38.8017162,28.4826411 38.6698572,28.3479156 L38.6618947,28.3389977 Z" id="Fill-15" fill="#4086FF" mask="url(#mask-2)"></path>
                        </g>
                    </g>
                </g>
            </g>
        </g>
    </g>
</svg>