<?xml version="1.0" encoding="UTF-8"?>
<svg width="21px" height="21px" viewBox="0 0 21 21" version="1.1" xmlns="http://www.w3.org/2000/svg" xmlns:xlink="http://www.w3.org/1999/xlink">
    <title>Group 2</title>
    <g id="Design" stroke="none" stroke-width="1" fill="none" fill-rule="evenodd">
        <g id="Status-menu" transform="translate(-1034.000000, -239.000000)">
            <g id="Group-2" transform="translate(1034.000000, 239.000000)">
                <rect id="Rectangle" fill="#FFFFFF" x="0" y="0" width="21" height="21"></rect>
                <g id="money-bill-transfer" transform="translate(1.000000, 3.000004)" fill="#757575" fill-rule="nonzero">
                    <path d="M17.4406242,1.97187102 L16.71875,1.28030837 C16.4281254,0.987496019 16.4281254,0.512495637 16.71875,0.21968329 C17.0125008,-0.0732225178 17.4874992,-0.0732225178 17.7531242,0.219651818 L19.7531242,2.21937048 C19.921875,2.35999548 20,2.55093348 20,2.74968302 C20,2.94874537 19.921875,3.14062083 19.7531242,3.25312102 L17.7531242,5.25312102 C17.4874992,5.57187045 17.0125008,5.57187045 16.71875,5.25312102 C16.4281254,4.98749602 16.4281254,4.51249564 16.71875,4.21874583 L17.4406242,3.47187102 L5,3.47187102 L5,3.97187102 C5,5.10312045 4.1031251,5.97187102 3,5.97187102 L2.5,5.97187102 L2.5,8.92187083 L1,10.4218708 L1,3.97187102 C1,2.89530814 1.89531279,1.97187102 3,1.97187102 L11.9875007,1.97187102 L12,1.99968302 L17.4406247,1.97187102 L17.4406242,1.97187102 Z M17.5,9.97187102 L17.5,7.07812083 L19,5.57812083 L19,11.971871 C19,13.1031204 18.1031251,13.971871 17,13.971871 L2.56062555,13.971871 L3.25312567,14.7187458 C3.57187605,15.0124956 3.57187605,15.487496 3.25312567,15.753121 C2.98750067,16.0718704 2.51250076,16.0718704 2.21968794,15.753121 L0.219656467,13.753121 C0.0789999962,13.6406208 0,13.4499956 0,13.221871 C0,13.049996 0.0790314674,12.8593708 0.219687939,12.7187458 L2.21968794,10.7187458 C2.51250076,10.4281212 2.98750067,10.4281212 3.25312567,10.7187458 C3.57187605,11.0124956 3.57187605,11.487496 3.25312567,11.753121 L2.56062555,12.471871 L7.97187567,12.471871 C8.00312567,12.471871 8.0093751,12.471871 8.01250029,12.471871 L15,12.471871 L15,11.971871 C15,10.893746 15.8968759,9.97187102 17,9.97187102 L17.5,9.97187102 Z M7.00000048,7.97187102 C7.00000048,6.31562102 8.31562567,4.97187102 10.0000005,4.97187102 C11.6562505,4.97187102 13.0000005,6.31562102 13.0000005,7.97187102 C13.0000005,9.65624583 11.6562505,10.971871 10.0000005,10.971871 C8.31562567,10.971871 7.00000048,9.65624583 7.00000048,7.97187102 Z" id="Shape"></path>
                </g>
            </g>
        </g>
    </g>
</svg>